<?xml version="1.0" encoding="utf-8"?>
<!-- Generator: Adobe Illustrator 22.0.0, SVG Export Plug-In . SVG Version: 6.00 Build 0)  -->
<svg version="1.1" id="图层_1" xmlns="http://www.w3.org/2000/svg" xmlns:xlink="http://www.w3.org/1999/xlink" x="0px" y="0px"
	 viewBox="0 0 24 24" style="enable-background:new 0 0 24 24;" xml:space="preserve">
<style type="text/css">
	.st0{fill:#02C765;}
</style>
<title>logo</title>
<desc>Created with Sketch.</desc>
<path class="st0" d="M12,0C5.4,0,0,5.4,0,12s5.4,12,12,12s12-5.4,12-12S18.6,0,12,0z M5.3,15.7c-2.7-2.7-2.7-7.2,0-9.9
	C8,3,12.4,3,15.2,5.8c2.7,2.7,2.7,7.2,0,9.9C12.4,18.4,8,18.4,5.3,15.7z M18.7,19.2c-0.8,0.8-2,0.8-2.8,0c-0.8-0.8-0.8-2,0-2.8
	s2-0.8,2.8,0C19.5,17.2,19.5,18.4,18.7,19.2z"/>
</svg>
