<?xml version="1.0" encoding="utf-8"?>
<!-- Generator: Adobe Illustrator 22.0.0, SVG Export Plug-In . SVG Version: 6.00 Build 0)  -->
<svg version="1.1" id="图层_1" xmlns="http://www.w3.org/2000/svg" xmlns:xlink="http://www.w3.org/1999/xlink" x="0px" y="0px"
	 viewBox="0 0 300 300" style="enable-background:new 0 0 300 300;" xml:space="preserve">
<desc></desc>
<g>
	<path d="M288,0h-12h-12h-12h-12h-12h-12v12v12v12v12v12v12v12h12h12h12h12h12h12h12V72V60V48V36V24V12V0H288z M288,24v12v12v12v12
		h-12h-12h-12h-12h-12V60V48V36V24V12h12h12h12h12h12V24z"/>
	<rect x="108" y="24" width="12" height="12"/>
	<polygon points="252,24 240,24 240,36 240,48 240,60 252,60 264,60 276,60 276,48 276,36 276,24 264,24 	"/>
	<polygon points="48,60 60,60 60,48 60,36 60,24 48,24 36,24 24,24 24,36 24,48 24,60 36,60 	"/>
	<rect x="108" y="60" width="12" height="12"/>
	<path d="M132,72h12V60h12v12h12v12h-12V72h-12v12v12v12h12V96h12v12h12v12h-12v-12h-12v12h-12v12h12h12h12h12v-12v-12V96h-12V84V72
		V60V48h-12V36h12v12h12v12v12v12h12V72V60V48V36h-12V24h-12V12V0h-12v12h-12h-12V0h-12h-12h-12H96v12h12h12h12v12v12h-12v12v12h12
		V72z M144,24h12v12v12h-12V36V24z"/>
	<path d="M24,84h12h12h12h12h12V72V60V48V36V24V12V0H72H60H48H36H24H12H0v12v12v12v12v12v12v12h12H24z M12,60V48V36V24V12h12h12h12
		h12h12v12v12v12v12v12H60H48H36H24H12V60z"/>
	<rect x="120" y="72" width="12" height="12"/>
	<rect x="72" y="96" width="12" height="12"/>
	<polygon points="120,96 120,84 108,84 108,72 96,72 96,84 96,96 108,96 108,108 120,108 	"/>
	<rect x="216" y="96" width="12" height="12"/>
	<rect x="288" y="96" width="12" height="12"/>
	<polygon points="72,120 72,108 60,108 60,96 48,96 36,96 36,108 48,108 48,120 48,132 60,132 60,120 	"/>
	<rect x="120" y="108" width="12" height="12"/>
	<polygon points="264,108 252,108 240,108 228,108 228,120 228,132 240,132 252,132 252,144 264,144 276,144 288,144 288,156 
		300,156 300,144 300,132 300,120 288,120 288,132 276,132 264,132 264,120 276,120 288,120 288,108 276,108 	"/>
	<polygon points="72,120 72,132 84,132 96,132 96,120 108,120 108,108 96,108 84,108 84,120 	"/>
	<rect x="108" y="120" width="12" height="12"/>
	<rect x="204" y="120" width="12" height="12"/>
	<rect y="132" width="12" height="12"/>
	<rect x="192" y="132" width="12" height="12"/>
	<polygon points="156,144 144,144 144,156 144,168 156,168 156,156 	"/>
	<polygon points="180,156 168,156 168,168 180,168 180,180 192,180 192,168 204,168 204,156 192,156 192,144 180,144 	"/>
	<polygon points="216,156 228,156 228,144 228,132 216,132 216,144 	"/>
	<polygon points="84,168 72,168 72,156 84,156 84,144 72,144 72,132 60,132 60,144 60,156 60,168 60,180 60,192 60,204 72,204 
		84,204 84,192 72,192 72,180 84,180 96,180 108,180 108,168 96,168 96,156 84,156 	"/>
	<polygon points="132,156 132,144 120,144 108,144 108,132 96,132 96,144 96,156 108,156 120,156 120,168 120,180 132,180 132,168 	
		"/>
	<polygon points="276,168 264,168 252,168 252,156 240,156 240,168 240,180 252,180 252,192 264,192 264,204 264,216 276,216 
		288,216 288,204 288,192 276,192 276,180 288,180 288,192 300,192 300,180 300,168 288,168 288,156 276,156 	"/>
	<rect x="156" y="168" width="12" height="12"/>
	<rect x="204" y="168" width="12" height="12"/>
	<polygon points="24,180 24,192 24,204 36,204 48,204 48,192 48,180 48,168 36,168 36,180 	"/>
	<rect x="132" y="180" width="12" height="12"/>
	<path d="M240,180h-12v12h-12h-12v-12h-12v12h-12h-12h-12h-12v12v12h12h12v-12h12h12v12v12h-12h-12h-12v12h12v12v12h-12v12h12v12h12
		v-12v-12v-12h12h12v12h-12v12h12h12v-12h12v-12h12h12v-12v-12v-12v-12v-12h-12V180z M240,216v12v12h-12h-12h-12v-12v-12v-12h12h12
		h12V216z"/>
	<polygon points="12,192 12,180 24,180 24,168 36,168 36,156 48,156 48,144 36,144 36,132 36,120 24,120 24,108 24,96 12,96 0,96 
		0,108 12,108 12,120 12,132 24,132 24,144 12,144 12,156 0,156 0,168 0,180 0,192 0,204 12,204 	"/>
	<rect x="96" y="204" width="12" height="12"/>
	<path d="M60,216H48H36H24H12H0v12v12v12v12v12v12v12h12h12h12h12h12h12h12v-12v-12v-12v-12v-12v-12v-12H72H60z M72,240v12v12v12v12
		H60H48H36H24H12v-12v-12v-12v-12v-12h12h12h12h12h12V240z"/>
	<rect x="132" y="216" width="12" height="12"/>
	<rect x="216" y="216" width="12" height="12"/>
	<rect x="288" y="216" width="12" height="12"/>
	<polygon points="132,240 132,228 120,228 120,216 108,216 108,228 108,240 120,240 	"/>
	<polygon points="36,240 24,240 24,252 24,264 24,276 36,276 48,276 60,276 60,264 60,252 60,240 48,240 	"/>
	<polygon points="108,240 96,240 96,252 96,264 108,264 108,252 	"/>
	<polygon points="132,240 132,252 120,252 120,264 132,264 132,276 144,276 144,264 144,252 156,252 156,240 144,240 	"/>
	<polygon points="120,264 108,264 108,276 96,276 96,288 96,300 108,300 120,300 120,288 132,288 132,276 120,276 	"/>
	<polygon points="228,288 240,288 252,288 252,276 264,276 264,288 276,288 288,288 288,300 300,300 300,288 300,276 300,264 
		300,252 288,252 276,252 276,264 264,264 252,264 240,264 240,276 228,276 216,276 216,288 	"/>
	<rect x="144" y="288" width="12" height="12"/>
	<polygon points="192,300 204,300 204,288 192,288 180,288 180,300 	"/>
	<rect x="252" y="288" width="12" height="12"/>
</g>
</svg>
